<?xml version="1.0" encoding="UTF-8"?>
<svg xmlns="http://www.w3.org/2000/svg" version="1.1" viewBox="0 0 792 612">
  <defs>
    <style>
      .cls-1, .cls-2 {
        fill: #62b4e5;
      }

      .cls-2 {
        stroke: #5596a6;
        stroke-width: 2px;
      }

      .cls-2, .cls-3, .cls-4, .cls-5 {
        stroke-miterlimit: 10;
      }

      .cls-6 {
        fill: #1d1d1b;
      }

      .cls-7 {
        fill: #fff;
      }

      .cls-3 {
        fill: none;
        stroke: #6ca4b9;
        stroke-width: 5px;
      }

      .cls-8, .cls-4, .cls-5 {
        fill: #1d4389;
      }

      .cls-4, .cls-5 {
        stroke: #1d4389;
      }

      .cls-5 {
        stroke-width: 3px;
      }
    </style>
  </defs>
  <!-- Generator: Adobe Illustrator 28.7.1, SVG Export Plug-In . SVG Version: 1.2.0 Build 142)  -->
  <g>
    <g id="Capa_1">
      <g>
        <text/>
        <g>
          <path class="cls-8" d="M673.42,299.43c-7.09-3.63-11.21-6.74-15.05-13.93-1.39-2.61-2.38-13.16,3.99-17.78,12.12-8.79,12.25-11.2,12.3-17.98.02-2.47-1.78-7.67-11.84-9.04-9.7-1.33-14.36-7.85-16.04-11.08-1.64-3.13-4.09-12.72,4.77-20.06,3.33-2.76,7.87-11.43,4.51-16.54-1.64-2.5-3.85-4.06-12.34-5.05-9.02-1.05-15.27-3.48-18.53-8.02-3.35-4.67-5.05-14.04-.21-23.33,4.41-8.47,2.85-12.8.6-15.63-1.91-2.39-4.78-3.3-13.56-2.87-5.94.29-12.66,2.6-21.01-4.2-1.69-1.38-5.44-6.98-2.94-20.07,2.31-12.08-.05-15.82-3.17-17.36-3.39-1.67-9.62.07-15.47,1.53-7.53,1.88-15.95,1.82-20.63-2.48-3.52-3.24-5.32-5.01-5.31-19.57,0-7.54-.2-10.69-6.01-13.56-3.9-1.92-8.61,1.62-18.34,5.74-5.95,2.52-12.92,4.1-18.41.42-3.87-2.6-6.79-6.23-8.89-18.41-1.72-10-7.75-11.51-8.82-11.76-3.72-.89-7.32.14-14.25,6.92-4.17,4.07-9.28,9.19-19.64,7.36-1.46-.26-6.6-.13-12.64-14.81-4.16-10.11-8.29-10.75-11.27-10.89-2.88-.13-5.7.85-9.93,7.07-7.19,10.56-13.96,11.82-18.17,11.84-3.39.02-9.94-.96-16.97-10.51-6.13-8.32-9.69-9.5-13.18-9.36-1,.04-6.61-1.29-11.65,9.74-5.17,11.31-8.59,15.1-12.99,16.43-4.32,1.3-11.85.73-20.44-8.4-6.19-6.58-10.33-7.47-13.26-6.44-3.45,1.21-6.72,5.53-8.52,16.37-1.49,9-5.3,13.61-9.57,16.03-.16-.04-.33-.1-.48-.12-.78-.1-3.88,1.44-8.37,1.02-3.34-.86-6.4-2.58-8.7-3.24-.15-.1-.29-.17-.43-.27-9.3-6.41-16.28-5.05-19.17-3.33-3.52,2.1-6.55,5.33-5.83,13.33.64,7.2.42,10.36-3.33,16.88-3.42,5.94-13.99,7.76-22.92,4.69-10.03-3.46-14.09-3.53-17.53,0-1.92,1.97-3.04,4.09-2.26,15.28,1.17,16.67-1.95,18.49-3.12,19.79-2.61,2.89-7.43,6.63-16.84,4.86-12.71-2.39-15.27,1.45-17.61,4.41-1.68,2.13-2.45,7.61.6,12.95,6.83,11.96,3.08,21.18,2.26,22.57-2.75,4.64-7.26,9.32-22.74,10.07-8.06.39-9.93,6.74-9.9,8.33.11,5.4.6,7.02,4.78,11.43,5.06,5.33,7.31,14.95,5.54,21.01-1.66,5.68-6.21,10.53-19.1,13.94,0,0-9.02,1.77-9.09,11.36-.04,5.35,3.49,8.57,9.09,13.09,4.69,3.78,8.04,10.59,7.64,15.28-.35,4.17-.12,12.1-10.22,16.02-8.12,3.15-11.21,7.22-11.54,10.72-.13,1.36-1.36,6.53,7.34,10.98,7.09,3.63,11.21,6.74,15.05,13.93,1.39,2.61,2.38,13.16-3.99,17.78-12.12,8.79-12.25,11.2-12.3,17.99-.02,2.47,1.78,7.67,11.84,9.04,9.7,1.33,14.36,7.85,16.04,11.08,1.64,3.13,4.09,12.72-4.77,20.06-3.33,2.76-7.87,11.43-4.51,16.54,1.64,2.5,3.85,4.06,12.34,5.05,9.02,1.05,15.27,3.48,18.53,8.02,3.35,4.67,5.05,14.04.21,23.33-4.41,8.47-2.85,12.8-.6,15.63,1.91,2.39,4.78,3.3,13.56,2.87,5.94-.29,12.66-2.6,21.01,4.2,1.69,1.38,5.44,6.98,2.94,20.07-2.31,12.08.05,15.82,3.17,17.36,3.39,1.67,9.62-.07,15.47-1.53,7.53-1.88,15.95-1.82,20.63,2.48,3.52,3.24,5.32,5.01,5.31,19.57,0,7.54.2,10.69,6.01,13.56,3.9,1.92,8.61-1.62,18.34-5.74,5.95-2.52,12.92-4.1,18.41-.42,3.87,2.6,6.79,6.23,8.89,18.41,1.72,10,7.75,11.51,8.82,11.76,3.72.89,7.32-.14,14.25-6.92,4.17-4.07,9.28-9.19,19.64-7.36,1.46.26,6.6.13,12.64,14.81,4.16,10.11,8.29,10.75,11.27,10.89,2.88.13,5.7-.85,9.93-7.07,7.19-10.56,13.96-11.82,18.17-11.84,3.39-.02,9.94.96,16.97,10.51,6.13,8.32,9.69,9.5,13.18,9.36,1-.04,6.61,1.29,11.65-9.74,5.17-11.31,8.59-15.1,12.99-16.43,4.32-1.3,11.85-.73,20.44,8.4,6.19,6.58,10.33,7.47,13.26,6.44,3.45-1.21,6.72-5.53,8.52-16.37,1.49-9,5.3-13.61,9.57-16.03.16.04.33.1.48.12.78.1,3.88-1.44,8.37-1.02,3.34.86,6.4,2.58,8.7,3.24.15.1.29.17.43.27,9.3,6.41,16.28,5.05,19.17,3.33,3.52-2.1,6.55-5.33,5.83-13.33-.64-7.2-.42-10.36,3.33-16.88,3.42-5.94,13.99-7.76,22.92-4.69,10.03,3.46,14.09,3.53,17.53,0,1.92-1.97,3.04-4.09,2.26-15.28-1.17-16.67,1.95-18.49,3.12-19.79,2.61-2.89,7.43-6.63,16.84-4.86,12.71,2.39,15.27-1.45,17.61-4.41,1.68-2.13,2.45-7.61-.6-12.95-6.83-11.96-3.08-21.18-2.26-22.57,2.75-4.64,7.26-9.32,22.74-10.07,8.06-.39,9.93-6.74,9.9-8.33-.11-5.4-.6-7.02-4.78-11.43-5.06-5.33-7.31-14.95-5.54-21.01,1.66-5.68,6.21-10.53,19.1-13.94,0,0,9.02-1.77,9.09-11.36.04-5.35-3.49-8.57-9.09-13.09-4.69-3.78-8.04-10.59-7.64-15.28.35-4.17.12-12.1,10.22-16.02,8.12-3.15,11.21-7.22,11.54-10.72.13-1.36,1.36-6.53-7.34-10.98Z"/>
          <circle class="cls-7" cx="394.19" cy="311.06" r="171.55"/>
          <path class="cls-5" d="M486.09,272.36l-65.31-25.69c-13.82-3.98-10.99-20.8-10.99-20.8,0,0,1.38-1.22,4.08-2.45,3.13-1.43.82-6.36.82-6.36l-5.33-.06s-1.77-8.26,6.71-7.65l.31-30.58h-42.35l.31,30.58c8.48-.61,6.71,7.65,6.71,7.65l-5.33.06s-2.32,4.94.82,6.36c2.7,1.23,4.08,2.45,4.08,2.45,0,0,2.83,16.82-10.99,20.8l-65.31,25.69c-15.56,5.17-14.76,15.41-14.76,15.41v13.95h6.59v14.11h-6.59v31.15h5.34l1.26,74.01h-6.59v12.54c12.58,53.64,89.01,51.28,105.64,50.12,16.62,1.16,93.06,3.52,105.64-50.12v-12.54h-6.59l1.26-74.01h5.34v-31.15h-6.59v-14.11h6.59v-13.95s.8-10.23-14.76-15.41Z"/>
          <path class="cls-7" d="M396,74.85c-129.92,0-235.24,105.32-235.24,235.24s105.32,235.24,235.24,235.24,235.24-105.32,235.24-235.24-105.32-235.24-235.24-235.24ZM396.65,471.51c-88.79,0-160.77-71.98-160.77-160.77s71.98-160.77,160.77-160.77,160.77,71.98,160.77,160.77-71.98,160.77-160.77,160.77Z"/>
          <path class="cls-7" d="M463.49,375.3c-.16-1.23-.35-2.44-.56-3.66-.87-6.85-2.75-13.39-5.5-19.45-7.77-22.2-36.49-55.22-36.49-55.22l-25.46-30.22-21.08,24.45s-32.15,35.44-41.36,62.07c-2.94,6.8-4.79,14.17-5.37,21.9,0,.04-.01.08-.02.12h0c-.12,1.64-.2,3.29-.2,4.97,0,37.56,30.45,68.02,68.02,68.02s68.02-30.45,68.02-68.02c0-1.67-.08-3.32-.2-4.97h.2Z"/>
          <path class="cls-2" d="M451.63,377.7c-.13-1.01-.29-2.02-.46-3.02-.72-5.66-2.27-11.05-4.54-16.05-6.7-17.37-17.12-30.16-17.12-30.16l-34.03-40.39-30.97,35.93s-12.98,13.52-20.59,35.51c-2.43,5.61-3.96,11.7-4.43,18.08,0,.03-.01.06-.02.1h0c-.1,1.36-.17,2.72-.17,4.1,0,31.01,25.14,56.16,56.16,56.16s56.16-25.14,56.16-56.16c0-1.38-.07-2.74-.17-4.1h.17Z"/>
          <circle class="cls-6" cx="359.43" cy="516.47" r="4.11"/>
          <circle class="cls-6" cx="486.11" cy="497.04" r="4.11"/>
          <polygon class="cls-1" points="590.35 286.09 595.98 303.42 614.19 303.42 599.46 314.13 605.09 331.45 590.35 320.74 575.61 331.45 581.24 314.13 566.5 303.42 584.72 303.42 590.35 286.09"/>
          <polygon class="cls-1" points="196.73 286.39 202.36 303.72 220.58 303.72 205.84 314.43 211.47 331.75 196.73 321.04 181.99 331.75 187.62 314.43 172.89 303.72 191.1 303.72 196.73 286.39"/>
          <path class="cls-7" d="M346.53,370.76c-1.47.21-7.38,29.01,8.45,46.14,19.71,21.33,42.08,13.64,40.49,13.64-19.22.01-31.21-8.3-37.73-17.68-13-18.71-9.89-42.29-11.22-42.09Z"/>
          <g>
            <path class="cls-4" d="M227.08,173.43c1.8-2.68,4.51-6.23,8.78-10.82,4.36-4.68,8.48-7.05,12.22-7.56,3.48-.53,7.38.5,10.59,3.46,3.07,2.84,4.84,6.3,4.83,9.88.05,4.83-2.38,9.79-6.8,14.53-1.22,1.31-2.41,2.43-3.48,3.15l12.39,11.44-5.77,6.19-32.77-30.26ZM248.31,181.52c1.08-.66,2.23-1.72,3.59-3.17,4.49-4.82,5.08-9.88,1.16-13.49-3.83-3.54-8.32-2.2-12.38,2.15-1.82,1.95-2.93,3.47-3.44,4.3l11.07,10.22Z"/>
            <path class="cls-4" d="M261.5,139.4l7.15-4.69,21,31.53,17.21-11.26,3.99,5.99-24.37,15.95-24.98-37.51Z"/>
            <path class="cls-4" d="M319.92,143.21l.33,13.69-8.51,2.95-.14-47.55,10.54-3.65,30.6,36.99-8.91,3.09-8.76-10.77-15.16,5.25ZM331.45,132.42l-7.68-9.33c-1.84-2.26-3.49-4.54-5.01-6.58l-.13.04c.16,2.54.42,5.34.48,8.1l.08,12.02,12.26-4.25Z"/>
            <path class="cls-4" d="M356.72,136.11c3.14,1.41,7.68,2.51,12.45,2.06,5.51-.52,8.36-3.22,7.98-6.87-.34-3.29-2.83-5.04-9.37-6.34-8.47-1.66-14-4.97-14.72-11.89-.77-7.42,5.26-13.54,15.43-14.5,5.51-.52,9.49.21,12.34,1.27l-1.47,6.95c-1.84-.7-5.53-1.82-10.33-1.37-5.58.52-7.6,3.5-7.33,6.11.35,3.41,3.38,4.76,10.04,6.21,8.76,1.93,13.38,5.27,14.1,12.22.72,6.91-3.91,14.01-16.66,15.21-5.2.49-10.79-.48-13.77-1.9l1.3-7.16Z"/>
            <path class="cls-4" d="M404.89,104.81l-14.45-.5.18-7,37.66,1.3-.18,7-14.61-.51-.99,37.8-8.6-.3.99-37.8Z"/>
            <path class="cls-4" d="M447.08,102.08l-7.36,44.16-8.48-1.47,7.36-44.16,8.48,1.47Z"/>
            <path class="cls-4" d="M462.88,105.34l27.02,9.48-2.26,6.53-18.88-6.63-3.93,11.33,17.54,6.15-2.26,6.53-17.54-6.15-6.19,17.86-8.13-2.86,14.65-42.26Z"/>
            <path class="cls-4" d="M514.2,128.18l-14.73,20.13c-5.45,7.45-4.88,13.63.39,17.47,5.57,4.06,11.57,2.73,17.05-4.76l14.73-20.13,6.97,5.08-14.55,19.88c-8.57,11.71-18.8,12.13-28.46,5.09-9.01-6.56-11.77-15.84-2.88-27.99l14.52-19.84,6.97,5.08Z"/>
            <path class="cls-4" d="M552.26,160.56l5.33,6.76-29.72,23.09,12.82,16.27-5.64,4.38-18.15-23.03,35.36-27.47Z"/>
          </g>
          <g>
            <path class="cls-4" d="M200.88,379.97c-.93-1.37-2.5-4.08-3.37-7.34-1.08-4.02-.89-7.31.59-10.05,1.3-2.44,3.69-4.27,6.68-5.07,6.28-1.68,12.27,1.98,14.39,9.9.79,2.96.81,5.45.59,6.67l-3.42-.08c.22-1.49.24-3.24-.46-5.86-1.36-5.08-5.14-7.7-9.69-6.48-4.49,1.2-6.76,5.24-5.39,10.33.45,1.67,1,2.86,1.44,3.38l5.05-1.35-1.12-4.2,3.12-.83,2.18,8.15-10.58,2.83Z"/>
            <path class="cls-4" d="M209.47,388.22l-6.65.42-1.63-4.07,23.13-.96,2.02,5.03-17.3,15.51-1.71-4.25,5.04-4.44-2.9-7.24ZM214.98,393.6l4.36-3.89c1.06-.93,2.13-1.77,3.09-2.55l-.02-.06c-1.23.13-2.59.31-3.93.39l-5.84.27,2.35,5.85Z"/>
            <path class="cls-4" d="M230.3,398.49c1.01,1.3,2.35,3.36,3.58,5.65,1.62,3.02,2.16,5.25,1.79,7.18-.27,1.5-1.26,2.9-2.93,3.8-2.56,1.37-5.25.38-6.75-1.09l-.09.05c.21,1.7-.67,3.27-2.14,4.7-2.06,1.98-4.03,3.74-4.59,4.56l-2.02-3.76c.39-.61,1.62-1.89,3.75-3.81,2.18-1.96,2.47-3.37,1.37-5.56l-1.14-2.13-7.88,4.23-1.95-3.64,18.98-10.18ZM223.8,406.66l1.34,2.51c1.38,2.57,3.42,3.5,5.32,2.48,2.16-1.16,2.13-3.34.86-5.72-.73-1.36-1.27-2.12-1.58-2.46l-5.95,3.19Z"/>
            <path class="cls-4" d="M239.59,415.37c1.14,1.19,2.69,3.09,4.15,5.25,1.92,2.83,2.69,4.99,2.53,6.95-.11,1.52-.95,3.01-2.52,4.08-2.4,1.63-5.17.93-6.82-.38l-.08.06c.39,1.67-.33,3.32-1.64,4.9-1.84,2.19-3.61,4.14-4.08,5.02l-2.39-3.53c.32-.65,1.42-2.05,3.33-4.17,1.96-2.17,2.1-3.61.79-5.67l-1.36-1.99-7.39,5.02-2.32-3.41,17.81-12.09ZM233.98,424.17l1.6,2.35c1.64,2.41,3.77,3.12,5.55,1.91,2.02-1.37,1.77-3.55.26-5.77-.86-1.27-1.49-1.97-1.83-2.28l-5.58,3.79Z"/>
            <path class="cls-4" d="M242.31,444.95l-6.16,2.55-2.86-3.32,21.57-8.4,3.54,4.11-11.34,20.27-2.99-3.47,3.33-5.83-5.09-5.91ZM249.27,448.25l2.87-5.1c.7-1.22,1.44-2.37,2.1-3.41l-.04-.05c-1.13.52-2.35,1.12-3.6,1.64l-5.44,2.14,4.12,4.78Z"/>
            <path class="cls-4" d="M265.62,447.72l10.11,9.46-2.31,2.46-7.06-6.61-4,4.28,6.56,6.14-2.31,2.47-6.56-6.14-6.3,6.74-3.04-2.85,14.91-15.94Z"/>
            <path class="cls-4" d="M289.5,481.16c-4.17,5.64-10.82,6.3-16.23,2.3-5.44-4.03-6.23-10.5-2.47-15.59,4.02-5.43,10.74-6.41,16.16-2.39,5.6,4.14,6.31,10.57,2.53,15.68ZM274.42,470.4c-2.59,3.5-2.55,7.99.95,10.57,3.52,2.61,7.73,1.41,10.49-2.32,2.48-3.36,2.75-7.92-.89-10.62-3.65-2.7-7.9-1.22-10.54,2.36Z"/>
            <path class="cls-4" d="M287.83,493.13l10.62-19.08,4.38,2.44.94,11.27c.21,3.04.19,5.81-.04,8.51l.09.02c1.15-2.72,2.4-5.03,3.93-7.78l3.94-7.08,3.41,1.89-10.62,19.08-3.88-2.16-.84-11.58c-.16-2.98-.27-6.1-.1-8.9l-.11-.03c-1.29,2.65-2.63,5.12-4.22,7.98l-4.08,7.32-3.41-1.89Z"/>
            <path class="cls-4" d="M326.65,501.53l-8.51-3.57-2.41,5.73,9.5,3.98-1.31,3.11-13.34-5.6,8.44-20.12,12.86,5.4-1.3,3.11-9.02-3.79-2.12,5.06,8.51,3.57-1.3,3.11Z"/>
            <path class="cls-4" d="M330.36,508.22c1.13,1.22,2.95,2.56,5.17,3.25,2.56.8,4.35.12,4.88-1.58.48-1.54-.3-2.79-2.97-4.59-3.47-2.33-5.31-4.84-4.3-8.07,1.08-3.47,4.95-5.08,9.68-3.6,2.56.8,4.2,1.87,5.27,2.87l-1.99,2.83c-.69-.66-2.12-1.85-4.36-2.54-2.6-.81-4.07.15-4.45,1.36-.5,1.59.6,2.76,3.3,4.66,3.55,2.5,4.97,4.86,3.96,8.11-1,3.23-4.44,5.54-10.37,3.69-2.42-.75-4.73-2.23-5.79-3.42l1.95-2.96Z"/>
            <path class="cls-4" d="M384,505.06l-7-.39.19-3.41,18.23,1.03-.19,3.41-7.07-.4-1.04,18.39-4.16-.23,1.04-18.39Z"/>
            <path class="cls-4" d="M400.24,517.58l-1.84,6.41-4.38.17,6.87-22.11,5.42-.21,8.79,21.5-4.58.18-2.49-6.24-7.79.3ZM407.15,514.19l-2.2-5.42c-.52-1.31-.96-2.6-1.36-3.77h-.06c-.3,1.21-.58,2.54-.96,3.83l-1.71,5.59,6.3-.24Z"/>
            <path class="cls-4" d="M416.9,501.34c1.5-.48,3.62-1.01,6.64-1.47,3.08-.47,5.37-.14,6.96.8,1.48.84,2.66,2.4,2.98,4.49.3,2-.08,3.84-1.17,5.2-1.45,1.85-3.89,3-7.01,3.48-.87.13-1.66.2-2.28.15l1.23,8.06-4.08.62-3.25-21.32ZM422.52,510.78c.61.07,1.37.02,2.33-.13,3.18-.48,4.94-2.23,4.55-4.77-.38-2.49-2.5-3.33-5.37-2.9-1.29.2-2.17.44-2.62.6l1.1,7.2Z"/>
            <path class="cls-4" d="M441.66,512.42l-.47,6.65-4.25,1.08,2.11-23.07,5.26-1.34,13.09,19.2-4.44,1.13-3.74-5.58-7.56,1.92ZM447.72,507.67l-3.28-4.84c-.79-1.17-1.48-2.34-2.12-3.4l-.06.02c-.04,1.24-.04,2.61-.14,3.95l-.51,5.83,6.11-1.56Z"/>
            <path class="cls-4" d="M460.73,508.83c1.64.29,3.9.26,6.09-.53,2.52-.91,3.55-2.53,2.94-4.21-.55-1.51-1.92-2.04-5.14-1.87-4.17.24-7.15-.66-8.3-3.84-1.23-3.41.88-7.04,5.54-8.72,2.53-.91,4.48-1.05,5.94-.89l.12,3.46c-.95-.1-2.81-.19-5.01.6-2.56.92-3.16,2.57-2.72,3.77.57,1.57,2.14,1.84,5.44,1.72,4.34-.15,6.9.87,8.05,4.07,1.15,3.18-.19,7.1-6.04,9.2-2.38.86-5.12,1.08-6.68.77l-.23-3.54Z"/>
            <path class="cls-4" d="M496.62,473.1c.93-.96,2.9-2.63,4.9-4.03,2.65-1.86,4.37-2.58,6.17-2.69,1.64-.18,3.3.37,4.44,2,1.14,1.62,1.13,3.87-.39,5.98l.05.06c2.14-.84,5.05-.77,6.86,1.8,1.14,1.62,1.26,3.41.78,5.04-.59,2.03-2.42,4.12-5.92,6.59-1.98,1.39-3.56,2.29-4.54,2.81l-12.33-17.56ZM504.92,477.74l1.95-1.37c2.54-1.78,3.1-3.72,2.07-5.19-1.23-1.75-3.15-1.37-5.31.14-1.15.81-1.71,1.32-2.05,1.67l3.34,4.75ZM510.66,485.9c.55-.26,1.19-.69,2.07-1.31,2.2-1.55,3.8-3.71,2.21-5.97-1.45-2.07-3.96-1.48-6.41.23l-1.89,1.33,4.02,5.72Z"/>
            <path class="cls-4" d="M535.6,455.08c4.69,5.22,4,11.86-1,16.36-5.04,4.53-11.54,4-15.77-.71-4.52-5.02-4.13-11.81.89-16.32,5.18-4.65,11.63-4.06,15.88.66ZM522.04,467.69c2.91,3.24,7.31,4.1,10.55,1.19,3.26-2.93,2.93-7.3-.17-10.74-2.79-3.11-7.21-4.28-10.58-1.25-3.38,3.03-2.78,7.49.2,10.8Z"/>
            <path class="cls-4" d="M535.45,444.14l-4.65,5.23-2.55-2.27,12.12-13.64,2.55,2.27-4.7,5.29,13.76,12.23-2.77,3.11-13.76-12.23Z"/>
            <path class="cls-4" d="M559.41,428.07l-5.44,7.47,5.03,3.66,6.07-8.33,2.73,1.99-8.52,11.7-17.65-12.86,8.22-11.28,2.73,1.99-5.76,7.91,4.44,3.23,5.44-7.47,2.73,1.99Z"/>
            <path class="cls-4" d="M551.89,417.25l2.13-3.58,15.77,9.36,5.12-8.62,3,1.78-7.25,12.2-18.77-11.14Z"/>
            <path class="cls-4" d="M560.37,402.57l1.79-3.76,16.56,7.88,4.31-9.05,3.15,1.5-6.1,12.82-19.71-9.38Z"/>
            <path class="cls-4" d="M583.82,387.78l5.28,4.08-1.45,4.13-18.02-14.53,1.8-5.12,23.23-.25-1.52,4.32-6.72.02-2.59,7.35ZM583.22,380.1l-5.85.05c-1.41,0-2.77-.07-4-.12l-.02.06c1.01.72,2.14,1.48,3.21,2.3l4.57,3.65,2.09-5.95Z"/>
            <path class="cls-4" d="M591.44,370.1c1.13-1.22,2.34-3.12,2.87-5.39.61-2.61-.19-4.35-1.92-4.76-1.57-.37-2.76.5-4.37,3.29-2.08,3.62-4.45,5.64-7.75,4.86-3.53-.83-5.42-4.57-4.28-9.4.62-2.61,1.56-4.32,2.49-5.46l2.97,1.79c-.6.73-1.69,2.25-2.23,4.52-.62,2.65.43,4.05,1.67,4.34,1.62.38,2.71-.79,4.41-3.62,2.24-3.71,4.5-5.3,7.81-4.52,3.29.77,5.84,4.03,4.42,10.08-.58,2.47-1.89,4.88-3,6.02l-3.09-1.74Z"/>
          </g>
          <ellipse class="cls-3" cx="395.81" cy="313.39" rx="157.03" ry="158.48"/>
        </g>
      </g>
    </g>
  </g>
</svg>